<mxfile host="app.diagrams.net" agent="Mozilla/5.0 (Windows NT 10.0; Win64; x64) AppleWebKit/537.36 (KHTML, like Gecko) Chrome/136.0.0.0 Safari/537.36" version="27.0.6">
  <diagram name="Page-1" id="7i8WvX3o7i39adEYjRg3">
    <mxGraphModel dx="983" dy="518" grid="1" gridSize="10" guides="1" tooltips="1" connect="1" arrows="1" fold="1" page="1" pageScale="1" pageWidth="850" pageHeight="1100" math="1" shadow="0">
      <root>
        <mxCell id="0" />
        <mxCell id="1" parent="0" />
        <mxCell id="YNapPXhA3iBTO7-f3Nzw-1" value="" style="endArrow=classic;html=1;rounded=0;entryX=0;entryY=0.5;entryDx=0;entryDy=0;" edge="1" parent="1" target="YNapPXhA3iBTO7-f3Nzw-2">
          <mxGeometry width="50" height="50" relative="1" as="geometry">
            <mxPoint x="160" y="400" as="sourcePoint" />
            <mxPoint x="200" y="400" as="targetPoint" />
          </mxGeometry>
        </mxCell>
        <mxCell id="YNapPXhA3iBTO7-f3Nzw-3" value="&lt;font style=&quot;font-size: 15px;&quot;&gt;&lt;b&gt;+&lt;/b&gt;&lt;/font&gt;" style="edgeLabel;html=1;align=center;verticalAlign=middle;resizable=0;points=[];" vertex="1" connectable="0" parent="YNapPXhA3iBTO7-f3Nzw-1">
          <mxGeometry x="0.5112" relative="1" as="geometry">
            <mxPoint x="-6" y="-10" as="offset" />
          </mxGeometry>
        </mxCell>
        <mxCell id="YNapPXhA3iBTO7-f3Nzw-10" value="r" style="edgeLabel;html=1;align=center;verticalAlign=middle;resizable=0;points=[];fontSize=15;fontStyle=1" vertex="1" connectable="0" parent="YNapPXhA3iBTO7-f3Nzw-1">
          <mxGeometry x="-0.7647" y="-1" relative="1" as="geometry">
            <mxPoint y="-11" as="offset" />
          </mxGeometry>
        </mxCell>
        <mxCell id="YNapPXhA3iBTO7-f3Nzw-5" value="" style="edgeStyle=orthogonalEdgeStyle;rounded=0;orthogonalLoop=1;jettySize=auto;html=1;" edge="1" parent="1" source="YNapPXhA3iBTO7-f3Nzw-2" target="YNapPXhA3iBTO7-f3Nzw-4">
          <mxGeometry relative="1" as="geometry" />
        </mxCell>
        <mxCell id="YNapPXhA3iBTO7-f3Nzw-2" value="$$\sum$$" style="ellipse;whiteSpace=wrap;html=1;aspect=fixed;" vertex="1" parent="1">
          <mxGeometry x="200" y="380" width="40" height="40" as="geometry" />
        </mxCell>
        <mxCell id="YNapPXhA3iBTO7-f3Nzw-7" value="" style="edgeStyle=orthogonalEdgeStyle;rounded=0;orthogonalLoop=1;jettySize=auto;html=1;" edge="1" parent="1" source="YNapPXhA3iBTO7-f3Nzw-4" target="YNapPXhA3iBTO7-f3Nzw-6">
          <mxGeometry relative="1" as="geometry" />
        </mxCell>
        <mxCell id="YNapPXhA3iBTO7-f3Nzw-4" value="$$K\left( \frac{s+1}{s+13}\right)$$" style="whiteSpace=wrap;html=1;" vertex="1" parent="1">
          <mxGeometry x="260" y="370" width="120" height="60" as="geometry" />
        </mxCell>
        <mxCell id="YNapPXhA3iBTO7-f3Nzw-8" style="edgeStyle=orthogonalEdgeStyle;rounded=0;orthogonalLoop=1;jettySize=auto;html=1;exitX=1;exitY=0.5;exitDx=0;exitDy=0;" edge="1" parent="1" source="YNapPXhA3iBTO7-f3Nzw-6">
          <mxGeometry relative="1" as="geometry">
            <mxPoint x="570" y="400" as="targetPoint" />
          </mxGeometry>
        </mxCell>
        <mxCell id="YNapPXhA3iBTO7-f3Nzw-11" value="&lt;font style=&quot;font-size: 15px;&quot;&gt;&lt;b&gt;y&lt;/b&gt;&lt;/font&gt;" style="edgeLabel;html=1;align=center;verticalAlign=middle;resizable=0;points=[];" vertex="1" connectable="0" parent="YNapPXhA3iBTO7-f3Nzw-8">
          <mxGeometry x="0.5144" y="2" relative="1" as="geometry">
            <mxPoint x="-9" y="-8" as="offset" />
          </mxGeometry>
        </mxCell>
        <mxCell id="YNapPXhA3iBTO7-f3Nzw-9" style="edgeStyle=orthogonalEdgeStyle;rounded=0;orthogonalLoop=1;jettySize=auto;html=1;exitX=1;exitY=0.5;exitDx=0;exitDy=0;entryX=0.5;entryY=1;entryDx=0;entryDy=0;" edge="1" parent="1" source="YNapPXhA3iBTO7-f3Nzw-6" target="YNapPXhA3iBTO7-f3Nzw-2">
          <mxGeometry relative="1" as="geometry">
            <Array as="points">
              <mxPoint x="540" y="400" />
              <mxPoint x="540" y="450" />
              <mxPoint x="220" y="450" />
            </Array>
          </mxGeometry>
        </mxCell>
        <mxCell id="YNapPXhA3iBTO7-f3Nzw-12" value="&lt;font style=&quot;font-size: 15px;&quot;&gt;&lt;b&gt;-&lt;/b&gt;&lt;/font&gt;" style="edgeLabel;html=1;align=center;verticalAlign=middle;resizable=0;points=[];" vertex="1" connectable="0" parent="YNapPXhA3iBTO7-f3Nzw-9">
          <mxGeometry x="0.9215" y="2" relative="1" as="geometry">
            <mxPoint x="-6" y="-7" as="offset" />
          </mxGeometry>
        </mxCell>
        <mxCell id="YNapPXhA3iBTO7-f3Nzw-6" value="$$\frac{s^2+81}{s^2\left(s^2+100\right)}$$" style="whiteSpace=wrap;html=1;" vertex="1" parent="1">
          <mxGeometry x="400" y="370" width="120" height="60" as="geometry" />
        </mxCell>
      </root>
    </mxGraphModel>
  </diagram>
</mxfile>
